<?xml version="1.0" ?><svg height="22px" version="1.1" viewBox="0 0 21 22" width="21px" xmlns="http://www.w3.org/2000/svg" xmlns:sketch="http://www.bohemiancoding.com/sketch/ns" xmlns:xlink="http://www.w3.org/1999/xlink"><title/><defs/><g fill="none" fill-rule="evenodd" id="miu" stroke="none" stroke-width="1"><path d="M13,2.08147545 L8,2.08147545 L8,2.08147545 L8,3.95292135 C8,4.58023879 7.3280543,5.08147545 6.49916725,5.08147545 L5.50083275,5.08147545 C4.66951005,5.08147545 4,4.57620458 4,3.95292135 L4,2.08147545 L0.628782437,2.08147545 C0.281515485,2.08147545 0,2.37231701 0,2.73000196 L0,20.4329489 C0,20.7911203 0.280982629,21.0814755 0.628488288,21.0814755 L20.3715117,21.0814755 C20.7186162,21.0814755 21,20.7906339 21,20.4329489 L21,2.73000196 C21,2.37183065 20.7179045,2.08147545 20.3712176,2.08147545 L17,2.08147545 L17,3.95292135 C17,4.58023879 16.3280543,5.08147545 15.4991672,5.08147545 L14.5008328,5.08147545 C13.66951,5.08147545 13,4.57620458 13,3.95292135 L13,2.08147545 Z M1,17.0814755 L1,19.7075891 C1,19.9140809 1.19222717,20.0814755 1.42982686,20.0814755 L4,20.0814755 L4,17.0814755 L1,17.0814755 L1,17.0814755 Z M5,17.0814755 L5,20.0814755 L8,20.0814755 L8,17.0814755 L5,17.0814755 L5,17.0814755 Z M9,17.0814755 L9,20.0814755 L12,20.0814755 L12,17.0814755 L9,17.0814755 L9,17.0814755 Z M13,17.0814755 L13,20.0814755 L16,20.0814755 L16,17.0814755 L13,17.0814755 L13,17.0814755 Z M17,17.0814755 L17,20.0814755 L19.5701731,20.0814755 C19.80756,20.0814755 20,19.9137541 20,19.7075891 L20,17.0814755 L17,17.0814755 L17,17.0814755 Z M1,13.0814755 L1,16.0814755 L4,16.0814755 L4,13.0814755 L1,13.0814755 L1,13.0814755 Z M5,13.0814755 L5,16.0814755 L8,16.0814755 L8,13.0814755 L5,13.0814755 L5,13.0814755 Z M13,13.0814755 L13,16.0814755 L16,16.0814755 L16,13.0814755 L13,13.0814755 L13,13.0814755 Z M17,13.0814755 L17,16.0814755 L20,16.0814755 L20,13.0814755 L17,13.0814755 L17,13.0814755 Z M1,9.08147545 L1,12.0814755 L4,12.0814755 L4,9.08147545 L1,9.08147545 L1,9.08147545 Z M5,9.08147545 L5,12.0814755 L8,12.0814755 L8,9.08147545 L5,9.08147545 L5,9.08147545 Z M9,9.08147545 L9,12.0814755 L12,12.0814755 L12,9.08147545 L9,9.08147545 L9,9.08147545 Z M13,9.08147545 L13,12.0814755 L16,12.0814755 L16,9.08147545 L13,9.08147545 L13,9.08147545 Z M17,9.08147545 L17,12.0814755 L20,12.0814755 L20,9.08147545 L17,9.08147545 L17,9.08147545 Z M5.75041638,0.081475452 C5.33597285,0.081475452 5,0.415633217 5,0.833844857 L5,3.32910605 C5,3.7446282 5.33475502,4.08147545 5.75041638,4.08147545 L6.24958362,4.08147545 C6.66402715,4.08147545 7,3.74731768 7,3.32910605 L7,0.833844857 C7,0.418322707 6.66524498,0.081475452 6.24958362,0.081475452 L5.75041638,0.081475452 L5.75041638,0.081475452 Z M15,0.081475452 C14.4477153,0.081475452 14,0.528683044 14,1.08052613 L14,3.08242478 C14,3.63418523 14.4488391,4.08147545 15,4.08147545 C15.5522847,4.08147545 16,3.63426785 16,3.08242478 L16,1.08052613 C16,0.528765674 15.5511609,0.081475452 15,0.081475452 L15,0.081475452 Z" fill="#000000" id="common_calendar_month_glyph"/></g></svg>