<?xml version="1.0" ?><svg style="enable-background:new 0 0 256 256;" version="1.1" viewBox="0 0 256 256" xml:space="preserve" xmlns="http://www.w3.org/2000/svg" xmlns:xlink="http://www.w3.org/1999/xlink"><style type="text/css">
	.st0{fill:#00A388;}
	.st1{fill:#EA685E;stroke:#00886F;stroke-width:15;stroke-miterlimit:10;}
	.st2{fill:#E8E8E8;}
	.st3{fill:#FFFFFF;stroke:#00886F;stroke-width:15;stroke-miterlimit:10;}
	.st4{fill:#00886F;}
	.st5{fill:#FFFFFF;}
	.st6{fill:#CCCCCC;}
	.st7{fill:none;stroke:#00A388;stroke-width:4;stroke-miterlimit:10;}
	.st8{fill:#EA685E;}
	.st9{fill:#FFAB80;}
	.st10{fill:#2C3E50;}
	.st11{fill:#4B687F;}
	.st12{fill:none;stroke:#3E5063;stroke-width:4;stroke-miterlimit:10;}
	.st13{fill:#FFD766;}
	.st14{fill:#FFE6D3;}
	.st15{fill:#F09A79;}
	.st16{fill:#C91E01;}
	.st17{fill:#EA3B28;}
	.st18{fill:#0F627F;}
	.st19{fill:#005670;}
	.st20{filter:url(#Adobe_OpacityMaskFilter);}
	.st21{mask:url(#SVGID_2_);}
	.st22{fill:#8C623B;}
	.st23{fill:#E6E6E6;stroke:#005670;stroke-width:16;stroke-miterlimit:10;}
	.st24{opacity:0.6;}
	.st25{fill:#E6E6E6;}
	.st26{fill:#FFEC82;}
	.st27{fill:#FFCF3A;}
	.st28{filter:url(#Adobe_OpacityMaskFilter_1_);}
	.st29{mask:url(#SVGID_1_);}
	.st30{fill:#603813;}
	.st31{fill:#F2F2F2;}
	.st32{fill:#666666;}
</style><g id="Layer_2"><circle class="st2" cx="128" cy="128" r="120"/><circle class="st2" cx="128" cy="128" r="120"/></g><g id="Layer_1"><g><g><path class="st16" d="M203,106.197296c-0.01001,3.829956-0.01001,8.519958-0.01001,11.109985     c0,0.869995-0.219971,1.779968-0.940002,2.47998l-33.070007,32.22998l-0.48999,0.480042     c-0.73999,0.719971-1.080017,1.76001-0.899963,2.779968l5.669983,21.690002l2.25,13.140015     c0.01001,0.070007,0.02002,0.130005,0.029968,0.200012v0.679993c0,0.01001,0,0.01001,0,0.02002l-0.029968,10.459961     c0,2.700012-2.26001,4.530029-4.570007,3.320007l-41.47998-21.809998c-0.910034-0.47998-2.01001-0.47998-2.920044,0     l-41.47998,21.809998c-2.309998,1.210022-4.570007-0.820007-4.570007-3.320007l-0.029968-10.459961     c0-0.01001,0-0.01001,0-0.02002v-0.679993c0.009949-0.070007,0.019958-0.130005,0.029968-0.200012l2.25-13.119995     l5.669983-21.710022c0.180054-1.019958-0.159973-2.059998-0.899963-2.779968l-0.48999-0.480042l-33.070007-32.22998     C53.25,119.107269,53,118.237274,53,117.387299v-11.190002c0-1.470032,1.02002-2.890015,2.700012-3.140015l5.51001-0.799988     l40.859985,5.419983c1.02002-0.150024,1.909973-0.789978,2.369995-1.720032l20.73999-42.019955     c1.150024-2.340027,4.48999-2.340027,5.640015,0l20.73999,42.019955c0.460022,0.930054,1.349976,1.570007,2.369995,1.720032     l41.220032-5.369995l5.149963,0.75C201.97998,103.307281,203,104.727264,203,106.197296z"/></g><g><path class="st17" d="M168.48999,141.137299c-0.73999,0.719971-1.080017,1.769958-0.899963,2.789978l1.389954,8.089966     l4.280029,24.950012l2.25,13.140015c0.01001,0.070007,0.02002,0.130005,0.029968,0.200012     c0.02002,0.22998,0.02002,0.459961,0,0.679993c0,0.01001,0,0.01001,0,0.02002     c-0.23999,2.099976-2.570007,3.47998-4.599976,2.419983l-41.47998-21.809998c-0.910034-0.47998-2.01001-0.47998-2.920044,0     l-41.47998,21.809998c-2.029968,1.059998-4.359985-0.320007-4.599976-2.419983c0-0.01001,0-0.01001,0-0.02002v-0.679993     c0.009949-0.070007,0.019958-0.130005,0.029968-0.200012l2.25-13.119995l4.280029-24.970032l1.389954-8.089966     c0.180054-1.02002-0.159973-2.070007-0.899963-2.789978l-33.559998-32.710022C53.299988,107.787262,53,106.987274,53,106.197296     c0-1.470032,1.02002-2.890015,2.700012-3.140015l5.51001-0.799988l40.859985-5.930054     c1.02002-0.149963,1.909973-0.799988,2.369995-1.72998l20.73999-42.010006c1.150024-2.339966,4.48999-2.339966,5.640015,0     l20.73999,42.010006c0.460022,0.929993,1.349976,1.580017,2.369995,1.72998l41.220032,5.980042l5.149963,0.75     c1.679993,0.25,2.700012,1.669983,2.700012,3.140015c0,0.789978-0.299988,1.589966-0.950012,2.22998L168.48999,141.137299z"/></g></g></g></svg>