<?xml version="1.0" ?><svg enable-background="new 0 0 64 64" version="1.1" viewBox="0 0 64 64" xml:space="preserve" xmlns="http://www.w3.org/2000/svg" xmlns:xlink="http://www.w3.org/1999/xlink"><g id="Glyph_sample_2nd_style_copy"><path d="M32,0.005c-17.673,0-32,14.327-32,32s14.327,32,32,32s32-14.327,32-32S49.673,0.005,32,0.005z M21.323,11.052   c2.434,0,4.406,1.973,4.406,4.406s-1.973,4.406-4.406,4.406c-2.434,0-4.406-1.973-4.406-4.406S18.889,11.052,21.323,11.052z    M28.924,50.54H13.723c0-0.02,0-0.33,0-3.9c0-4.13,4.481-4.181,4.481-4.181h6.239c0,0,4.481,0.075,4.481,4.181   C28.924,50.21,28.924,50.52,28.924,50.54z M16.917,36.365c0-2.434,1.973-4.406,4.406-4.406c2.434,0,4.406,1.973,4.406,4.406   s-1.973,4.406-4.406,4.406C18.889,40.772,16.917,38.799,16.917,36.365z M28.924,29.633H13.723c0-0.02,0-0.33,0-3.9   c0-4.13,4.481-4.181,4.481-4.181h6.239c0,0,4.481,0.075,4.481,4.181C28.924,29.303,28.924,29.613,28.924,29.633z M42.676,11.052   c2.434,0,4.406,1.973,4.406,4.406s-1.973,4.406-4.406,4.406c-2.434,0-4.406-1.973-4.406-4.406S40.243,11.052,42.676,11.052z    M50.277,50.54H35.076c0-0.02,0-0.33,0-3.9c0-4.13,4.481-4.181,4.481-4.181h6.239c0,0,4.481,0.075,4.481,4.181   C50.277,50.21,50.277,50.52,50.277,50.54z M38.27,36.365c0-2.434,1.973-4.406,4.406-4.406c2.434,0,4.406,1.973,4.406,4.406   s-1.973,4.406-4.406,4.406C40.243,40.772,38.27,38.799,38.27,36.365z M50.277,29.633H35.076c0-0.02,0-0.33,0-3.9   c0-4.13,4.481-4.181,4.481-4.181h6.239c0,0,4.481,0.075,4.481,4.181C50.277,29.303,50.277,29.613,50.277,29.633z"/></g></svg>