<?xml version="1.0" ?><svg height="24" version="1.1" width="24" xmlns="http://www.w3.org/2000/svg" xmlns:cc="http://creativecommons.org/ns#" xmlns:dc="http://purl.org/dc/elements/1.1/" xmlns:rdf="http://www.w3.org/1999/02/22-rdf-syntax-ns#"><g transform="translate(0 -1028.4)"><g fill="#2980b9"><path d="m3 1035.4v13h3v-13h-3zm5 0v13h3v-13h-3zm5 0v13h3v-13h-3zm5 0v13h3v-13h-3z" fill="#1abc9c"/><path d="m4 1047.4c-1.1046 0-2 0.9-2 2v1h10 10v-1c0-1.1-0.895-2-2-2h-8-8z" fill="#16a085"/><path d="m2 1048.4c-1.1046 0-2 0.9-2 2l2.8719e-8 1h24v-1c0-1.1-0.895-2-2-2h-20z" fill="#1abc9c"/><rect fill="#16a085" height="1" width="24" x="2.8719e-8" y="1050.4"/><path d="m12 1l-12 5v1h24v-1l-12-5z" fill="#1abc9c" transform="translate(0 1028.4)"/><g fill="#16a085"><rect height="13" width="1.5" x="3" y="1035.4"/><rect height="13" width="1.5" x="8" y="1035.4"/><rect height="12" width="1.5" x="13" y="1035.4"/><rect height="12" width="1.5" x="18" y="1035.4"/><path d="m2.2812 1035.4c0.3461 0.6 0.9792 1 1.7188 1h8 8c0.74 0 1.373-0.4 1.719-1h-19.438z"/></g></g></g></svg>