<?xml version="1.0" standalone="no"?>
<!DOCTYPE svg PUBLIC "-//W3C//DTD SVG 20010904//EN"
 "http://www.w3.org/TR/2001/REC-SVG-20010904/DTD/svg10.dtd">
<svg version="1.0" xmlns="http://www.w3.org/2000/svg"
 width="100.000000pt" height="100.000000pt" viewBox="0 0 100.000000 100.000000"
 preserveAspectRatio="xMidYMid meet">

<g transform="translate(0.000000,100.000000) scale(0.100000,-0.100000)"
fill="#000000" stroke="none">
<path d="M44 949 c-4 -7 177 -195 444 -462 357 -357 454 -449 464 -439 9 9 4
20 -27 52 l-39 40 37 0 37 0 0 360 0 360 -398 0 -398 0 -49 50 c-52 53 -60 57
-71 39z m876 -406 l0 -278 -120 120 -120 119 -40 -39 -40 -39 -198 197 -197
197 358 0 357 0 0 -277z m-117 -211 c64 -64 117 -125 117 -135 0 -13 -9 -17
-38 -17 -34 0 -46 9 -147 110 l-109 109 24 26 c13 14 26 25 29 25 4 0 59 -53
124 -118z"/>
<path d="M660 680 c-11 -11 -20 -29 -20 -40 0 -26 34 -60 60 -60 11 0 29 9 40
20 11 11 20 29 20 40 0 11 -9 29 -20 40 -11 11 -29 20 -40 20 -11 0 -29 -9
-40 -20z"/>
<path d="M40 500 l0 -360 367 0 c365 0 366 0 348 20 -17 19 -31 20 -347 20
l-328 0 1 78 0 77 130 119 c117 108 128 121 114 135 -14 14 -22 9 -83 -49 -37
-36 -89 -85 -115 -110 l-48 -45 1 223 c1 218 -3 252 -31 252 -5 0 -9 -160 -9
-360z"/>
<path d="M520 345 c-19 -20 -21 -28 -12 -37 10 -10 18 -7 38 13 21 21 23 28
11 37 -11 9 -19 6 -37 -13z"/>
</g>
</svg>
