<?xml version="1.0" encoding="utf-8"?>
<!-- Generator: Adobe Illustrator 16.0.3, SVG Export Plug-In . SVG Version: 6.00 Build 0)  -->
<!DOCTYPE svg PUBLIC "-//W3C//DTD SVG 1.1//EN" "http://www.w3.org/Graphics/SVG/1.1/DTD/svg11.dtd">
<svg version="1.1" id="Layer_1" xmlns="http://www.w3.org/2000/svg" xmlns:xlink="http://www.w3.org/1999/xlink" x="0px" y="0px"
	 width="26px" height="24px" viewBox="0 0 26 24" enable-background="new 0 0 26 24" xml:space="preserve">
    <rect x="1" fill="#1ca8dd" width="24" height="22" />
    <polygon fill="#2a2a2a" points="23,20 3,20 3,2 18,2 23,7 " />
    <g>
        <path fill="#dedede" d="M11.121,16.9H9.721l-0.4-1.2h-2l-0.4,1.2h-1.3l2-5.601h1.5L11.121,16.9z M9.021,14.7l-0.6-1.9
		    c0-0.1-0.1-0.3-0.1-0.5l0,0c0,0.2,0,0.3-0.1,0.5l-0.6,1.9H9.021z" />
        <path fill="#dedede" d="M12.521,16.4L12.521,16.4v0.5h-1.2V11h1.2v2.5l0,0c0.3-0.5,0.7-0.7,1.3-0.7c0.5,0,0.9,0.2,1.201,0.5
		    c0.299,0.4,0.4,0.8,0.4,1.5s-0.201,1.2-0.5,1.601C14.621,16.8,14.121,17,13.621,17C13.121,17,12.821,16.8,12.521,16.4z
		     M12.521,14.8v0.4c0,0.3,0.1,0.5,0.2,0.6c0.1,0.101,0.3,0.3,0.6,0.3s0.5-0.1,0.701-0.3c0.199-0.2,0.199-0.5,0.199-0.899
		    c0-0.301-0.1-0.601-0.199-0.801c-0.1-0.199-0.3-0.3-0.6-0.3c-0.2,0-0.5,0.101-0.601,0.3C12.621,14.2,12.521,14.5,12.521,14.8z" />
    </g>
</svg>
