<?xml version="1.0" encoding="utf-8"?>
<!-- Generator: Adobe Illustrator 16.0.3, SVG Export Plug-In . SVG Version: 6.00 Build 0)  -->
<!DOCTYPE svg PUBLIC "-//W3C//DTD SVG 1.1//EN" "http://www.w3.org/Graphics/SVG/1.1/DTD/svg11.dtd">
<svg version="1.1" xmlns="http://www.w3.org/2000/svg" xmlns:xlink="http://www.w3.org/1999/xlink" x="0px" y="0px" width="26px"
	 height="24px" viewBox="0 0 26 24" enable-background="new 0 0 26 24" xml:space="preserve">
    <rect x="1" fill="#337AB7" width="24" height="22" />
    <polygon fill="#FFFFFF" points="23,20 3,20 3,2 18,2 23,7 " />
    <g>
        <path fill="#333333" d="M12.7,16.801H11l-0.5-1.6H8l-0.5,1.6H5.7l2.5-7h1.9L12.7,16.801z M10.101,14L9.3,11.6
		    C9.2,11.4,9.2,11.2,9.2,11l0,0c0,0.2-0.1,0.4-0.1,0.6L8.3,14H10.101z" />
        <path fill="#333333" d="M14.4,16.201L14.4,16.201v0.6h-1.5V9.4h1.5V12.6l0,0C14.8,12,15.3,11.7,16,11.7c0.601,0,1.101,0.2,1.5,0.7
		    c0.4,0.5,0.5,1,0.5,1.799c0,0.801-0.2,1.502-0.6,2.002C17,16.701,16.4,17,15.8,17C15.2,16.9,14.8,16.701,14.4,16.201z M14.4,14.1
		    v0.5c0,0.301,0.1,0.602,0.3,0.801s0.4,0.301,0.7,0.301c0.399,0,0.6-0.102,0.8-0.4C16.4,15,16.5,14.6,16.5,14.1
		    c0-0.4-0.1-0.699-0.3-1c-0.2-0.199-0.4-0.299-0.8-0.299c-0.3,0-0.601,0.1-0.8,0.299C14.5,13.4,14.4,13.699,14.4,14.1z" />
    </g>
</svg>
