<?xml version="1.0" standalone="no"?>
<!DOCTYPE svg PUBLIC "-//W3C//DTD SVG 20010904//EN"
 "http://www.w3.org/TR/2001/REC-SVG-20010904/DTD/svg10.dtd">
<svg version="1.0" xmlns="http://www.w3.org/2000/svg"
 width="980.000000pt" height="980.000000pt" viewBox="0 0 980.000000 980.000000"
 preserveAspectRatio="xMidYMid meet">

<g transform="translate(0.000000,980.000000) scale(0.100000,-0.100000)"
fill="#000000" stroke="none">
<path d="M1475 9793 c-247 -22 -532 -125 -745 -268 -366 -246 -607 -607 -702
-1052 l-23 -108 -3 -3410 c-3 -3713 -5 -3515 52 -3736 146 -561 604 -1019
1165 -1165 221 -57 23 -55 3736 -51 3183 3 3416 4 3495 20 345 70 620 214 858
448 277 273 441 614 482 1001 14 133 13 6737 -1 6866 -61 565 -410 1058 -921
1302 -124 59 -250 101 -395 132 l-108 23 -3425 1 c-1884 0 -3443 -1 -3465 -3z
m6880 -832 c158 -39 288 -114 402 -235 86 -89 142 -183 185 -307 l33 -94 0
-3425 0 -3425 -33 -94 c-43 -124 -99 -218 -185 -307 -115 -122 -253 -201 -415
-238 -64 -15 -380 -16 -3444 -16 -3296 0 -3375 1 -3453 19 -155 38 -284 112
-396 228 -110 114 -174 228 -209 377 -19 79 -20 147 -20 3456 0 3309 1 3377
20 3456 71 296 304 531 599 604 73 18 192 19 3456 19 3304 1 3382 0 3460 -18z"/>
<path d="M3385 7885 c-48 -22 -57 -33 -354 -387 -155 -186 -283 -338 -285
-338 -1 0 -25 11 -53 24 -90 44 -169 60 -288 60 -145 -1 -251 -30 -378 -106
l-37 -22 -38 36 c-52 50 -95 69 -157 69 -115 0 -205 -87 -205 -201 0 -60 23
-104 89 -174 l60 -62 -21 -64 c-28 -85 -30 -265 -5 -360 54 -204 191 -371 382
-466 118 -58 209 -77 345 -71 189 8 336 73 470 207 131 131 198 280 207 462 6
113 -6 189 -48 300 l-30 77 304 363 c167 200 309 379 315 397 35 99 -7 204
-100 252 -44 23 -129 25 -173 4z m-844 -861 c30 -9 58 -19 62 -23 4 -5 -42
-67 -102 -140 l-110 -132 -121 118 -121 117 48 25 c26 13 66 30 88 37 57 18
191 17 256 -2z m374 -451 c25 -188 -101 -408 -285 -496 -211 -101 -439 -56
-599 119 -85 93 -132 210 -130 324 2 118 -7 122 202 -80 104 -100 204 -188
223 -196 51 -22 132 -18 179 9 26 15 98 92 210 226 l170 203 12 -29 c6 -15 15
-51 18 -80z"/>
<path d="M4114 6919 c-74 -25 -146 -78 -196 -144 -86 -112 -102 -286 -40 -416
38 -80 118 -159 199 -197 l58 -27 1785 0 1785 0 66 32 c80 40 159 120 197 200
24 52 27 69 27 168 0 98 -3 116 -27 167 -31 67 -103 147 -162 182 -102 59 14
56 -1890 56 -1728 -1 -1741 -1 -1802 -21z"/>
<path d="M2235 5594 c-145 -36 -302 -139 -390 -256 -102 -134 -148 -273 -148
-438 0 -165 46 -304 148 -438 91 -121 249 -222 400 -257 109 -26 286 -17 390
19 111 38 211 103 293 191 352 377 202 980 -288 1161 -65 24 -92 28 -210 30
-96 3 -152 -1 -195 -12z m277 -195 c259 -54 442 -320 398 -577 -34 -203 -184
-365 -385 -417 -310 -79 -625 170 -625 495 0 319 300 564 612 499z"/>
<path d="M4138 5291 c-119 -31 -210 -109 -266 -228 -24 -52 -27 -70 -27 -163
0 -97 2 -110 31 -171 56 -118 168 -205 293 -229 74 -14 3428 -14 3502 0 127
24 236 109 292 228 30 62 32 75 32 172 0 97 -2 110 -32 172 -56 119 -165 204
-292 228 -35 6 -646 10 -1760 9 -1592 0 -1710 -1 -1773 -18z"/>
<path d="M2255 3964 c-38 -8 -112 -36 -164 -60 -79 -39 -108 -60 -180 -132
-95 -96 -140 -165 -177 -270 -72 -209 -46 -435 72 -620 163 -254 479 -382 771
-311 133 32 289 129 376 235 325 391 154 986 -328 1140 -103 33 -266 41 -370
18z m306 -215 c179 -52 320 -217 351 -411 28 -182 -55 -376 -206 -481 -103
-73 -179 -97 -302 -97 -333 0 -575 320 -485 642 63 229 294 392 526 371 28 -2
80 -13 116 -24z"/>
<path d="M4123 3656 c-103 -33 -204 -123 -251 -224 -37 -81 -42 -202 -12 -291
39 -116 109 -194 226 -248 l59 -28 1776 0 1775 0 76 38 c88 43 152 107 195
195 26 52 28 67 28 167 0 104 -2 114 -32 175 -41 83 -110 152 -193 193 l-65
32 -1770 2 c-1443 1 -1778 -1 -1812 -11z"/>
</g>
</svg>
