<?xml version="1.0" ?><!DOCTYPE svg  PUBLIC '-//W3C//DTD SVG 1.1//EN'  'http://www.w3.org/Graphics/SVG/1.1/DTD/svg11.dtd'><svg enable-background="new 0 0 24 24" height="24px" id="Layer_1" version="1.1" viewBox="0 0 24 24" width="24px" xml:space="preserve" xmlns="http://www.w3.org/2000/svg" xmlns:xlink="http://www.w3.org/1999/xlink"><g><path d="M23,6h-8V1c0-0.6-0.4-1-1-1H1C0.4,0,0,0.4,0,1v23h24V7C24,6.4,23.6,6,23,6z M22,8v14h-7V8H22z M13,2v5v15h-3v-5H5v5H2V2H13   z M6,22v-4h3v4H6z"/><path d="M7,4H4v3h3V4z M6,6H5V5h1V6z"/><path d="M7,8H4v3h3V8z M6,10H5V9h1V10z"/><path d="M7,12H4v3h3V12z M6,14H5v-1h1V14z"/><path d="M11,4H8v3h3V4z M10,6H9V5h1V6z"/><path d="M11,8H8v3h3V8z M10,10H9V9h1V10z"/><path d="M11,12H8v3h3V12z M10,14H9v-1h1V14z"/><path d="M20,10h-3v3h3V10z M19,12h-1v-1h1V12z"/><path d="M20,14h-3v3h3V14z M19,16h-1v-1h1V16z"/></g></svg>