<svg xmlns="http://www.w3.org/2000/svg" id="list-alt" viewBox="0 0 1240.7664 1540" width="64" height="64"><path d="M165.766 100h1050q10 0 17.5 7.5t7.5 17.5v1150q0 10-7.5 17.5t-17.5 7.5h-1050q-10 0-17.5-7.5t-7.5-17.5V125q0-10 7.5-17.5t17.5-7.5zm950 200h-850q-10 0-17.5 7.5t-7.5 17.5v850q0 10 7.5 17.5t17.5 7.5h850q10 0 17.5-7.5t7.5-17.5V325q0-10-7.5-17.5t-17.5-7.5zm-750 100h50q10 0 17.5 7.5t7.5 17.5v50q0 10-7.5 17.5t-17.5 7.5h-50q-10 0-17.5-7.5t-7.5-17.5v-50q0-10 7.5-17.5t17.5-7.5zm200 0h450q10 0 17.5 7.5t7.5 17.5v50q0 10-7.5 17.5t-17.5 7.5h-450q-10 0-17.5-7.5t-7.5-17.5v-50q0-10 7.5-17.5t17.5-7.5zm-200 200h50q10 0 17.5 7.5t7.5 17.5v50q0 10-7.5 17.5t-17.5 7.5h-50q-10 0-17.5-7.5t-7.5-17.5v-50q0-10 7.5-17.5t17.5-7.5zm200 0h450q10 0 17.5 7.5t7.5 17.5v50q0 10-7.5 17.5t-17.5 7.5h-450q-10 0-17.5-7.5t-7.5-17.5v-50q0-10 7.5-17.5t17.5-7.5zm-200 200h50q10 0 17.5 7.5t7.5 17.5v50q0 10-7.5 17.5t-17.5 7.5h-50q-10 0-17.5-7.5t-7.5-17.5v-50q0-10 7.5-17.5t17.5-7.5zm200 0h450q10 0 17.5 7.5t7.5 17.5v50q0 10-7.5 17.5t-17.5 7.5h-450q-10 0-17.5-7.5t-7.5-17.5v-50q0-10 7.5-17.5t17.5-7.5zm-200 200h50q10 0 17.5 7.5t7.5 17.5v50q0 10-7.5 17.5t-17.5 7.5h-50q-10 0-17.5-7.5t-7.5-17.5v-50q0-10 7.5-17.5t17.5-7.5zm200 0h450q10 0 17.5 7.5t7.5 17.5v50q0 10-7.5 17.5t-17.5 7.5h-450q-10 0-17.5-7.5t-7.5-17.5v-50q0-10 7.5-17.5t17.5-7.5z"/></svg>